<mxfile host="app.diagrams.net" modified="2023-06-26T15:48:25.929Z" agent="Mozilla/5.0 (X11; Ubuntu; Linux x86_64; rv:109.0) Gecko/20100101 Firefox/113.0" etag="0Zz53hfHXrIZt9SH-5nl" version="21.5.0" type="device">
  <diagram name="Page-1" id="vKJgKZNnyDKFaku7WMa4">
    <mxGraphModel dx="2450" dy="946" grid="1" gridSize="10" guides="1" tooltips="1" connect="1" arrows="1" fold="1" page="1" pageScale="1" pageWidth="850" pageHeight="1100" math="0" shadow="0">
      <root>
        <mxCell id="0" />
        <mxCell id="1" parent="0" />
        <mxCell id="PCnRKQrJ0jfSyrjNcoq8-22" style="edgeStyle=orthogonalEdgeStyle;rounded=0;orthogonalLoop=1;jettySize=auto;html=1;exitX=0.5;exitY=1;exitDx=0;exitDy=0;endArrow=block;endFill=0;entryX=0.5;entryY=1;entryDx=0;entryDy=0;" edge="1" parent="1" target="PCnRKQrJ0jfSyrjNcoq8-1">
          <mxGeometry relative="1" as="geometry">
            <mxPoint x="610" y="390" as="sourcePoint" />
          </mxGeometry>
        </mxCell>
        <mxCell id="PCnRKQrJ0jfSyrjNcoq8-1" value="Persona" style="swimlane;fontStyle=1;align=center;verticalAlign=top;childLayout=stackLayout;horizontal=1;startSize=26;horizontalStack=0;resizeParent=1;resizeParentMax=0;resizeLast=0;collapsible=1;marginBottom=0;whiteSpace=wrap;html=1;" vertex="1" parent="1">
          <mxGeometry x="490" y="200" width="240" height="128" as="geometry" />
        </mxCell>
        <mxCell id="PCnRKQrJ0jfSyrjNcoq8-2" value="&lt;div&gt;nome: stringa&lt;div&gt;codice fiscale: CodiceFiscale&lt;br&gt;&lt;/div&gt;&lt;div&gt;Indirizzo: Indirizzo&lt;/div&gt;numero telefono: NumeroTelefono&lt;/div&gt;" style="text;strokeColor=none;fillColor=none;align=left;verticalAlign=top;spacingLeft=4;spacingRight=4;overflow=hidden;rotatable=0;points=[[0,0.5],[1,0.5]];portConstraint=eastwest;whiteSpace=wrap;html=1;" vertex="1" parent="PCnRKQrJ0jfSyrjNcoq8-1">
          <mxGeometry y="26" width="240" height="94" as="geometry" />
        </mxCell>
        <mxCell id="PCnRKQrJ0jfSyrjNcoq8-3" value="" style="line;strokeWidth=1;fillColor=none;align=left;verticalAlign=middle;spacingTop=-1;spacingLeft=3;spacingRight=3;rotatable=0;labelPosition=right;points=[];portConstraint=eastwest;strokeColor=inherit;" vertex="1" parent="PCnRKQrJ0jfSyrjNcoq8-1">
          <mxGeometry y="120" width="240" height="8" as="geometry" />
        </mxCell>
        <mxCell id="PCnRKQrJ0jfSyrjNcoq8-5" value="Direttore" style="swimlane;fontStyle=1;align=center;verticalAlign=top;childLayout=stackLayout;horizontal=1;startSize=26;horizontalStack=0;resizeParent=1;resizeParentMax=0;resizeLast=0;collapsible=1;marginBottom=0;whiteSpace=wrap;html=1;" vertex="1" parent="1">
          <mxGeometry x="610" y="410" width="160" height="60" as="geometry" />
        </mxCell>
        <mxCell id="PCnRKQrJ0jfSyrjNcoq8-6" value="nascita: data" style="text;strokeColor=none;fillColor=none;align=left;verticalAlign=top;spacingLeft=4;spacingRight=4;overflow=hidden;rotatable=0;points=[[0,0.5],[1,0.5]];portConstraint=eastwest;whiteSpace=wrap;html=1;" vertex="1" parent="PCnRKQrJ0jfSyrjNcoq8-5">
          <mxGeometry y="26" width="160" height="26" as="geometry" />
        </mxCell>
        <mxCell id="PCnRKQrJ0jfSyrjNcoq8-7" value="" style="line;strokeWidth=1;fillColor=none;align=left;verticalAlign=middle;spacingTop=-1;spacingLeft=3;spacingRight=3;rotatable=0;labelPosition=right;points=[];portConstraint=eastwest;strokeColor=inherit;" vertex="1" parent="PCnRKQrJ0jfSyrjNcoq8-5">
          <mxGeometry y="52" width="160" height="8" as="geometry" />
        </mxCell>
        <mxCell id="PCnRKQrJ0jfSyrjNcoq8-15" style="edgeStyle=orthogonalEdgeStyle;rounded=0;orthogonalLoop=1;jettySize=auto;html=1;exitX=1;exitY=0.5;exitDx=0;exitDy=0;entryX=1;entryY=0.5;entryDx=0;entryDy=0;endArrow=none;endFill=0;" edge="1" parent="1" source="PCnRKQrJ0jfSyrjNcoq8-11" target="PCnRKQrJ0jfSyrjNcoq8-5">
          <mxGeometry relative="1" as="geometry" />
        </mxCell>
        <mxCell id="PCnRKQrJ0jfSyrjNcoq8-20" style="edgeStyle=orthogonalEdgeStyle;rounded=0;orthogonalLoop=1;jettySize=auto;html=1;exitX=0.5;exitY=1;exitDx=0;exitDy=0;entryX=0;entryY=0.5;entryDx=0;entryDy=0;endArrow=none;endFill=0;" edge="1" parent="1" source="PCnRKQrJ0jfSyrjNcoq8-11" target="PCnRKQrJ0jfSyrjNcoq8-17">
          <mxGeometry relative="1" as="geometry" />
        </mxCell>
        <mxCell id="PCnRKQrJ0jfSyrjNcoq8-11" value="Officina" style="swimlane;fontStyle=1;align=center;verticalAlign=top;childLayout=stackLayout;horizontal=1;startSize=26;horizontalStack=0;resizeParent=1;resizeParentMax=0;resizeLast=0;collapsible=1;marginBottom=0;whiteSpace=wrap;html=1;" vertex="1" parent="1">
          <mxGeometry x="130" y="90" width="160" height="88" as="geometry" />
        </mxCell>
        <mxCell id="PCnRKQrJ0jfSyrjNcoq8-12" value="&lt;div&gt;nome: stringa&lt;/div&gt;&lt;div&gt;indirizzo: Indirizzo&lt;/div&gt;" style="text;strokeColor=none;fillColor=none;align=left;verticalAlign=top;spacingLeft=4;spacingRight=4;overflow=hidden;rotatable=0;points=[[0,0.5],[1,0.5]];portConstraint=eastwest;whiteSpace=wrap;html=1;" vertex="1" parent="PCnRKQrJ0jfSyrjNcoq8-11">
          <mxGeometry y="26" width="160" height="54" as="geometry" />
        </mxCell>
        <mxCell id="PCnRKQrJ0jfSyrjNcoq8-13" value="" style="line;strokeWidth=1;fillColor=none;align=left;verticalAlign=middle;spacingTop=-1;spacingLeft=3;spacingRight=3;rotatable=0;labelPosition=right;points=[];portConstraint=eastwest;strokeColor=inherit;" vertex="1" parent="PCnRKQrJ0jfSyrjNcoq8-11">
          <mxGeometry y="80" width="160" height="8" as="geometry" />
        </mxCell>
        <mxCell id="PCnRKQrJ0jfSyrjNcoq8-16" value="dirige" style="text;html=1;align=center;verticalAlign=middle;resizable=0;points=[];autosize=1;strokeColor=none;fillColor=none;" vertex="1" parent="1">
          <mxGeometry x="690" y="100" width="50" height="30" as="geometry" />
        </mxCell>
        <mxCell id="PCnRKQrJ0jfSyrjNcoq8-21" style="edgeStyle=orthogonalEdgeStyle;rounded=0;orthogonalLoop=1;jettySize=auto;html=1;exitX=0.5;exitY=0;exitDx=0;exitDy=0;entryX=0.563;entryY=-0.017;entryDx=0;entryDy=0;entryPerimeter=0;endArrow=none;endFill=0;" edge="1" parent="1" source="PCnRKQrJ0jfSyrjNcoq8-17" target="PCnRKQrJ0jfSyrjNcoq8-5">
          <mxGeometry relative="1" as="geometry" />
        </mxCell>
        <mxCell id="PCnRKQrJ0jfSyrjNcoq8-17" value="Dipendente" style="swimlane;fontStyle=1;align=center;verticalAlign=top;childLayout=stackLayout;horizontal=1;startSize=26;horizontalStack=0;resizeParent=1;resizeParentMax=0;resizeLast=0;collapsible=1;marginBottom=0;whiteSpace=wrap;html=1;" vertex="1" parent="1">
          <mxGeometry x="425" y="423" width="160" height="34" as="geometry" />
        </mxCell>
        <mxCell id="PCnRKQrJ0jfSyrjNcoq8-19" value="" style="line;strokeWidth=1;fillColor=none;align=left;verticalAlign=middle;spacingTop=-1;spacingLeft=3;spacingRight=3;rotatable=0;labelPosition=right;points=[];portConstraint=eastwest;strokeColor=inherit;" vertex="1" parent="PCnRKQrJ0jfSyrjNcoq8-17">
          <mxGeometry y="26" width="160" height="8" as="geometry" />
        </mxCell>
        <mxCell id="PCnRKQrJ0jfSyrjNcoq8-23" value="{disjoint}" style="text;html=1;align=center;verticalAlign=middle;resizable=0;points=[];autosize=1;strokeColor=none;fillColor=none;" vertex="1" parent="1">
          <mxGeometry x="530" y="360" width="70" height="30" as="geometry" />
        </mxCell>
        <mxCell id="PCnRKQrJ0jfSyrjNcoq8-24" value="1..*" style="text;html=1;align=center;verticalAlign=middle;resizable=0;points=[];autosize=1;strokeColor=none;fillColor=none;" vertex="1" parent="1">
          <mxGeometry x="300" y="90" width="40" height="30" as="geometry" />
        </mxCell>
        <mxCell id="PCnRKQrJ0jfSyrjNcoq8-25" value="1..1" style="text;html=1;align=center;verticalAlign=middle;resizable=0;points=[];autosize=1;strokeColor=none;fillColor=none;" vertex="1" parent="1">
          <mxGeometry x="790" y="440" width="40" height="30" as="geometry" />
        </mxCell>
        <mxCell id="PCnRKQrJ0jfSyrjNcoq8-26" value="0..*" style="text;html=1;align=center;verticalAlign=middle;resizable=0;points=[];autosize=1;strokeColor=none;fillColor=none;" vertex="1" parent="1">
          <mxGeometry x="385" y="400" width="40" height="30" as="geometry" />
        </mxCell>
        <mxCell id="PCnRKQrJ0jfSyrjNcoq8-27" value="1..1" style="text;html=1;align=center;verticalAlign=middle;resizable=0;points=[];autosize=1;strokeColor=none;fillColor=none;" vertex="1" parent="1">
          <mxGeometry x="220" y="178" width="40" height="30" as="geometry" />
        </mxCell>
        <mxCell id="PCnRKQrJ0jfSyrjNcoq8-28" value="lavora" style="text;html=1;align=center;verticalAlign=middle;resizable=0;points=[];autosize=1;strokeColor=none;fillColor=none;" vertex="1" parent="1">
          <mxGeometry x="240" y="348" width="60" height="30" as="geometry" />
        </mxCell>
        <mxCell id="PCnRKQrJ0jfSyrjNcoq8-37" style="edgeStyle=orthogonalEdgeStyle;rounded=0;orthogonalLoop=1;jettySize=auto;html=1;exitX=1;exitY=0.5;exitDx=0;exitDy=0;entryX=-0.006;entryY=0.154;entryDx=0;entryDy=0;entryPerimeter=0;endArrow=none;endFill=0;" edge="1" parent="1">
          <mxGeometry relative="1" as="geometry">
            <mxPoint x="290.0000000000002" y="597.5" as="sourcePoint" />
            <mxPoint x="377.03999999999996" y="582.5040000000001" as="targetPoint" />
            <Array as="points">
              <mxPoint x="334" y="598" />
              <mxPoint x="378" y="598" />
              <mxPoint x="378" y="583" />
            </Array>
          </mxGeometry>
        </mxCell>
        <mxCell id="PCnRKQrJ0jfSyrjNcoq8-67" style="edgeStyle=orthogonalEdgeStyle;rounded=0;orthogonalLoop=1;jettySize=auto;html=1;exitX=0.5;exitY=0;exitDx=0;exitDy=0;entryX=0.25;entryY=1;entryDx=0;entryDy=0;endArrow=none;endFill=0;" edge="1" parent="1">
          <mxGeometry relative="1" as="geometry">
            <mxPoint x="160" y="559" as="sourcePoint" />
            <mxPoint x="162" y="177.00000000000006" as="targetPoint" />
            <Array as="points">
              <mxPoint x="160" y="560" />
              <mxPoint x="162" y="560" />
              <mxPoint x="162" y="369" />
              <mxPoint x="163" y="369" />
              <mxPoint x="163" y="177" />
            </Array>
          </mxGeometry>
        </mxCell>
        <mxCell id="PCnRKQrJ0jfSyrjNcoq8-29" value="Veicolo" style="swimlane;fontStyle=1;align=center;verticalAlign=top;childLayout=stackLayout;horizontal=1;startSize=26;horizontalStack=0;resizeParent=1;resizeParentMax=0;resizeLast=0;collapsible=1;marginBottom=0;whiteSpace=wrap;html=1;" vertex="1" parent="1">
          <mxGeometry x="93" y="560" width="197" height="90" as="geometry" />
        </mxCell>
        <mxCell id="PCnRKQrJ0jfSyrjNcoq8-31" value="" style="line;strokeWidth=1;fillColor=none;align=left;verticalAlign=middle;spacingTop=-1;spacingLeft=3;spacingRight=3;rotatable=0;labelPosition=right;points=[];portConstraint=eastwest;strokeColor=inherit;" vertex="1" parent="PCnRKQrJ0jfSyrjNcoq8-29">
          <mxGeometry y="26" width="197" height="8" as="geometry" />
        </mxCell>
        <mxCell id="PCnRKQrJ0jfSyrjNcoq8-30" value="&lt;div&gt;targa:Targa&lt;/div&gt;&lt;div&gt;annoImmatricolazione: intero&amp;gt;0&lt;br&gt;&lt;/div&gt;" style="text;strokeColor=none;fillColor=none;align=left;verticalAlign=top;spacingLeft=4;spacingRight=4;overflow=hidden;rotatable=0;points=[[0,0.5],[1,0.5]];portConstraint=eastwest;whiteSpace=wrap;html=1;" vertex="1" parent="PCnRKQrJ0jfSyrjNcoq8-29">
          <mxGeometry y="34" width="197" height="56" as="geometry" />
        </mxCell>
        <mxCell id="PCnRKQrJ0jfSyrjNcoq8-48" style="edgeStyle=orthogonalEdgeStyle;rounded=0;orthogonalLoop=1;jettySize=auto;html=1;exitX=1;exitY=0.5;exitDx=0;exitDy=0;entryX=0;entryY=0.5;entryDx=0;entryDy=0;endArrow=none;endFill=0;" edge="1" parent="1" source="PCnRKQrJ0jfSyrjNcoq8-33" target="PCnRKQrJ0jfSyrjNcoq8-45">
          <mxGeometry relative="1" as="geometry">
            <Array as="points">
              <mxPoint x="645" y="590" />
            </Array>
          </mxGeometry>
        </mxCell>
        <mxCell id="PCnRKQrJ0jfSyrjNcoq8-55" style="edgeStyle=orthogonalEdgeStyle;rounded=0;orthogonalLoop=1;jettySize=auto;html=1;exitX=0.5;exitY=1;exitDx=0;exitDy=0;entryX=0.5;entryY=0;entryDx=0;entryDy=0;endArrow=none;endFill=0;" edge="1" parent="1" source="PCnRKQrJ0jfSyrjNcoq8-33" target="PCnRKQrJ0jfSyrjNcoq8-51">
          <mxGeometry relative="1" as="geometry" />
        </mxCell>
        <mxCell id="PCnRKQrJ0jfSyrjNcoq8-33" value="Modello" style="swimlane;fontStyle=1;align=center;verticalAlign=top;childLayout=stackLayout;horizontal=1;startSize=26;horizontalStack=0;resizeParent=1;resizeParentMax=0;resizeLast=0;collapsible=1;marginBottom=0;whiteSpace=wrap;html=1;" vertex="1" parent="1">
          <mxGeometry x="378" y="560" width="160" height="60" as="geometry" />
        </mxCell>
        <mxCell id="PCnRKQrJ0jfSyrjNcoq8-34" value="nome: string" style="text;strokeColor=none;fillColor=none;align=left;verticalAlign=top;spacingLeft=4;spacingRight=4;overflow=hidden;rotatable=0;points=[[0,0.5],[1,0.5]];portConstraint=eastwest;whiteSpace=wrap;html=1;" vertex="1" parent="PCnRKQrJ0jfSyrjNcoq8-33">
          <mxGeometry y="26" width="160" height="26" as="geometry" />
        </mxCell>
        <mxCell id="PCnRKQrJ0jfSyrjNcoq8-35" value="" style="line;strokeWidth=1;fillColor=none;align=left;verticalAlign=middle;spacingTop=-1;spacingLeft=3;spacingRight=3;rotatable=0;labelPosition=right;points=[];portConstraint=eastwest;strokeColor=inherit;" vertex="1" parent="PCnRKQrJ0jfSyrjNcoq8-33">
          <mxGeometry y="52" width="160" height="8" as="geometry" />
        </mxCell>
        <mxCell id="PCnRKQrJ0jfSyrjNcoq8-39" value="veic_modello" style="text;html=1;align=center;verticalAlign=middle;resizable=0;points=[];autosize=1;strokeColor=none;fillColor=none;" vertex="1" parent="1">
          <mxGeometry x="278" y="530" width="90" height="30" as="geometry" />
        </mxCell>
        <mxCell id="PCnRKQrJ0jfSyrjNcoq8-40" value="1..1" style="text;html=1;align=center;verticalAlign=middle;resizable=0;points=[];autosize=1;strokeColor=none;fillColor=none;" vertex="1" parent="1">
          <mxGeometry x="340" y="600" width="40" height="30" as="geometry" />
        </mxCell>
        <mxCell id="PCnRKQrJ0jfSyrjNcoq8-43" value="0..*" style="text;html=1;align=center;verticalAlign=middle;resizable=0;points=[];autosize=1;strokeColor=none;fillColor=none;" vertex="1" parent="1">
          <mxGeometry x="248" y="590" width="40" height="30" as="geometry" />
        </mxCell>
        <mxCell id="PCnRKQrJ0jfSyrjNcoq8-44" value="Marca" style="swimlane;fontStyle=1;align=center;verticalAlign=top;childLayout=stackLayout;horizontal=1;startSize=26;horizontalStack=0;resizeParent=1;resizeParentMax=0;resizeLast=0;collapsible=1;marginBottom=0;whiteSpace=wrap;html=1;" vertex="1" parent="1">
          <mxGeometry x="645" y="550" width="160" height="60" as="geometry" />
        </mxCell>
        <mxCell id="PCnRKQrJ0jfSyrjNcoq8-45" value="+ field: type" style="text;strokeColor=none;fillColor=none;align=left;verticalAlign=top;spacingLeft=4;spacingRight=4;overflow=hidden;rotatable=0;points=[[0,0.5],[1,0.5]];portConstraint=eastwest;whiteSpace=wrap;html=1;" vertex="1" parent="PCnRKQrJ0jfSyrjNcoq8-44">
          <mxGeometry y="26" width="160" height="26" as="geometry" />
        </mxCell>
        <mxCell id="PCnRKQrJ0jfSyrjNcoq8-46" value="" style="line;strokeWidth=1;fillColor=none;align=left;verticalAlign=middle;spacingTop=-1;spacingLeft=3;spacingRight=3;rotatable=0;labelPosition=right;points=[];portConstraint=eastwest;strokeColor=inherit;" vertex="1" parent="PCnRKQrJ0jfSyrjNcoq8-44">
          <mxGeometry y="52" width="160" height="8" as="geometry" />
        </mxCell>
        <mxCell id="PCnRKQrJ0jfSyrjNcoq8-49" value="1..1" style="text;html=1;align=center;verticalAlign=middle;resizable=0;points=[];autosize=1;strokeColor=none;fillColor=none;" vertex="1" parent="1">
          <mxGeometry x="605" y="560" width="40" height="30" as="geometry" />
        </mxCell>
        <mxCell id="PCnRKQrJ0jfSyrjNcoq8-50" value="1..*" style="text;html=1;align=center;verticalAlign=middle;resizable=0;points=[];autosize=1;strokeColor=none;fillColor=none;" vertex="1" parent="1">
          <mxGeometry x="538" y="560" width="40" height="30" as="geometry" />
        </mxCell>
        <mxCell id="PCnRKQrJ0jfSyrjNcoq8-51" value="Tipo veicolo" style="swimlane;fontStyle=1;align=center;verticalAlign=top;childLayout=stackLayout;horizontal=1;startSize=26;horizontalStack=0;resizeParent=1;resizeParentMax=0;resizeLast=0;collapsible=1;marginBottom=0;whiteSpace=wrap;html=1;" vertex="1" parent="1">
          <mxGeometry x="378" y="700" width="160" height="60" as="geometry" />
        </mxCell>
        <mxCell id="PCnRKQrJ0jfSyrjNcoq8-52" value="nome: string" style="text;strokeColor=none;fillColor=none;align=left;verticalAlign=top;spacingLeft=4;spacingRight=4;overflow=hidden;rotatable=0;points=[[0,0.5],[1,0.5]];portConstraint=eastwest;whiteSpace=wrap;html=1;" vertex="1" parent="PCnRKQrJ0jfSyrjNcoq8-51">
          <mxGeometry y="26" width="160" height="26" as="geometry" />
        </mxCell>
        <mxCell id="PCnRKQrJ0jfSyrjNcoq8-53" value="" style="line;strokeWidth=1;fillColor=none;align=left;verticalAlign=middle;spacingTop=-1;spacingLeft=3;spacingRight=3;rotatable=0;labelPosition=right;points=[];portConstraint=eastwest;strokeColor=inherit;" vertex="1" parent="PCnRKQrJ0jfSyrjNcoq8-51">
          <mxGeometry y="52" width="160" height="8" as="geometry" />
        </mxCell>
        <mxCell id="PCnRKQrJ0jfSyrjNcoq8-56" value="mod tipo" style="text;html=1;align=center;verticalAlign=middle;resizable=0;points=[];autosize=1;strokeColor=none;fillColor=none;" vertex="1" parent="1">
          <mxGeometry x="368" y="650" width="70" height="30" as="geometry" />
        </mxCell>
        <mxCell id="PCnRKQrJ0jfSyrjNcoq8-59" value="1..1" style="text;html=1;align=center;verticalAlign=middle;resizable=0;points=[];autosize=1;strokeColor=none;fillColor=none;" vertex="1" parent="1">
          <mxGeometry x="460" y="620" width="40" height="30" as="geometry" />
        </mxCell>
        <mxCell id="PCnRKQrJ0jfSyrjNcoq8-69" style="edgeStyle=orthogonalEdgeStyle;rounded=0;orthogonalLoop=1;jettySize=auto;html=1;entryX=0.014;entryY=0.25;entryDx=0;entryDy=0;entryPerimeter=0;" edge="1" parent="1" source="PCnRKQrJ0jfSyrjNcoq8-62" target="PCnRKQrJ0jfSyrjNcoq8-12">
          <mxGeometry relative="1" as="geometry" />
        </mxCell>
        <mxCell id="PCnRKQrJ0jfSyrjNcoq8-70" style="edgeStyle=orthogonalEdgeStyle;rounded=0;orthogonalLoop=1;jettySize=auto;html=1;exitX=0.5;exitY=1;exitDx=0;exitDy=0;entryX=0;entryY=0.5;entryDx=0;entryDy=0;" edge="1" parent="1" source="PCnRKQrJ0jfSyrjNcoq8-62" target="PCnRKQrJ0jfSyrjNcoq8-29">
          <mxGeometry relative="1" as="geometry" />
        </mxCell>
        <mxCell id="PCnRKQrJ0jfSyrjNcoq8-62" value="Riparazione" style="swimlane;fontStyle=1;align=center;verticalAlign=top;childLayout=stackLayout;horizontal=1;startSize=26;horizontalStack=0;resizeParent=1;resizeParentMax=0;resizeLast=0;collapsible=1;marginBottom=0;whiteSpace=wrap;html=1;" vertex="1" parent="1">
          <mxGeometry x="-90" y="318" width="210" height="90" as="geometry" />
        </mxCell>
        <mxCell id="PCnRKQrJ0jfSyrjNcoq8-63" value="&lt;div&gt;istanteAccettazione:DataOra&lt;br&gt;&lt;/div&gt;&lt;div&gt;&lt;br&gt;&lt;/div&gt;&lt;div&gt;codice riparazione&lt;br&gt;&lt;/div&gt;" style="text;strokeColor=none;fillColor=none;align=left;verticalAlign=top;spacingLeft=4;spacingRight=4;overflow=hidden;rotatable=0;points=[[0,0.5],[1,0.5]];portConstraint=eastwest;whiteSpace=wrap;html=1;" vertex="1" parent="PCnRKQrJ0jfSyrjNcoq8-62">
          <mxGeometry y="26" width="210" height="64" as="geometry" />
        </mxCell>
        <mxCell id="PCnRKQrJ0jfSyrjNcoq8-64" value="" style="line;strokeWidth=1;fillColor=none;align=left;verticalAlign=middle;spacingTop=-1;spacingLeft=3;spacingRight=3;rotatable=0;labelPosition=right;points=[];portConstraint=eastwest;strokeColor=inherit;" vertex="1" parent="PCnRKQrJ0jfSyrjNcoq8-62">
          <mxGeometry y="90" width="210" as="geometry" />
        </mxCell>
        <mxCell id="PCnRKQrJ0jfSyrjNcoq8-66" value="0.." style="text;html=1;align=center;verticalAlign=middle;resizable=0;points=[];autosize=1;strokeColor=none;fillColor=none;" vertex="1" parent="1">
          <mxGeometry x="130" y="530" width="40" height="30" as="geometry" />
        </mxCell>
        <mxCell id="PCnRKQrJ0jfSyrjNcoq8-68" value="1..*" style="text;html=1;align=center;verticalAlign=middle;resizable=0;points=[];autosize=1;strokeColor=none;fillColor=none;" vertex="1" parent="1">
          <mxGeometry x="130" y="178" width="40" height="30" as="geometry" />
        </mxCell>
        <mxCell id="PCnRKQrJ0jfSyrjNcoq8-71" value="accettazione" style="text;html=1;align=center;verticalAlign=middle;resizable=0;points=[];autosize=1;strokeColor=none;fillColor=none;" vertex="1" parent="1">
          <mxGeometry x="-10" y="220" width="90" height="30" as="geometry" />
        </mxCell>
        <mxCell id="PCnRKQrJ0jfSyrjNcoq8-72" value="1..1" style="text;html=1;align=center;verticalAlign=middle;resizable=0;points=[];autosize=1;strokeColor=none;fillColor=none;" vertex="1" parent="1">
          <mxGeometry x="90" y="140" width="40" height="30" as="geometry" />
        </mxCell>
        <mxCell id="PCnRKQrJ0jfSyrjNcoq8-73" value="0.." style="text;html=1;align=center;verticalAlign=middle;resizable=0;points=[];autosize=1;strokeColor=none;fillColor=none;" vertex="1" parent="1">
          <mxGeometry x="-10" y="288" width="40" height="30" as="geometry" />
        </mxCell>
        <mxCell id="PCnRKQrJ0jfSyrjNcoq8-74" value="rip_veicolo" style="text;html=1;align=center;verticalAlign=middle;resizable=0;points=[];autosize=1;strokeColor=none;fillColor=none;" vertex="1" parent="1">
          <mxGeometry x="-80" y="470" width="80" height="30" as="geometry" />
        </mxCell>
        <mxCell id="PCnRKQrJ0jfSyrjNcoq8-75" value="1..1" style="text;html=1;align=center;verticalAlign=middle;resizable=0;points=[];autosize=1;strokeColor=none;fillColor=none;" vertex="1" parent="1">
          <mxGeometry x="53" y="565" width="40" height="30" as="geometry" />
        </mxCell>
        <mxCell id="PCnRKQrJ0jfSyrjNcoq8-76" value="1..*" style="text;html=1;align=center;verticalAlign=middle;resizable=0;points=[];autosize=1;strokeColor=none;fillColor=none;" vertex="1" parent="1">
          <mxGeometry y="410" width="40" height="30" as="geometry" />
        </mxCell>
        <mxCell id="PCnRKQrJ0jfSyrjNcoq8-85" style="edgeStyle=orthogonalEdgeStyle;rounded=0;orthogonalLoop=1;jettySize=auto;html=1;exitX=0.5;exitY=0;exitDx=0;exitDy=0;entryX=1;entryY=0.5;entryDx=0;entryDy=0;endArrow=block;endFill=0;" edge="1" parent="1" source="PCnRKQrJ0jfSyrjNcoq8-81" target="PCnRKQrJ0jfSyrjNcoq8-1">
          <mxGeometry relative="1" as="geometry" />
        </mxCell>
        <mxCell id="PCnRKQrJ0jfSyrjNcoq8-86" style="edgeStyle=orthogonalEdgeStyle;rounded=0;orthogonalLoop=1;jettySize=auto;html=1;exitX=0.5;exitY=1;exitDx=0;exitDy=0;entryX=0.469;entryY=1.069;entryDx=0;entryDy=0;entryPerimeter=0;" edge="1" parent="1" source="PCnRKQrJ0jfSyrjNcoq8-81" target="PCnRKQrJ0jfSyrjNcoq8-30">
          <mxGeometry relative="1" as="geometry">
            <Array as="points">
              <mxPoint x="930" y="810" />
              <mxPoint x="185" y="810" />
            </Array>
          </mxGeometry>
        </mxCell>
        <mxCell id="PCnRKQrJ0jfSyrjNcoq8-81" value="Proprietario" style="swimlane;fontStyle=1;align=center;verticalAlign=top;childLayout=stackLayout;horizontal=1;startSize=26;horizontalStack=0;resizeParent=1;resizeParentMax=0;resizeLast=0;collapsible=1;marginBottom=0;whiteSpace=wrap;html=1;" vertex="1" parent="1">
          <mxGeometry x="850" y="410" width="160" height="60" as="geometry" />
        </mxCell>
        <mxCell id="PCnRKQrJ0jfSyrjNcoq8-82" value="+ field: type" style="text;strokeColor=none;fillColor=none;align=left;verticalAlign=top;spacingLeft=4;spacingRight=4;overflow=hidden;rotatable=0;points=[[0,0.5],[1,0.5]];portConstraint=eastwest;whiteSpace=wrap;html=1;" vertex="1" parent="PCnRKQrJ0jfSyrjNcoq8-81">
          <mxGeometry y="26" width="160" height="26" as="geometry" />
        </mxCell>
        <mxCell id="PCnRKQrJ0jfSyrjNcoq8-83" value="" style="line;strokeWidth=1;fillColor=none;align=left;verticalAlign=middle;spacingTop=-1;spacingLeft=3;spacingRight=3;rotatable=0;labelPosition=right;points=[];portConstraint=eastwest;strokeColor=inherit;" vertex="1" parent="PCnRKQrJ0jfSyrjNcoq8-81">
          <mxGeometry y="52" width="160" height="8" as="geometry" />
        </mxCell>
        <mxCell id="PCnRKQrJ0jfSyrjNcoq8-87" value="1.." style="text;html=1;align=center;verticalAlign=middle;resizable=0;points=[];autosize=1;strokeColor=none;fillColor=none;" vertex="1" parent="1">
          <mxGeometry x="930" y="470" width="40" height="30" as="geometry" />
        </mxCell>
        <mxCell id="PCnRKQrJ0jfSyrjNcoq8-88" value="propreitario" style="text;html=1;align=center;verticalAlign=middle;resizable=0;points=[];autosize=1;strokeColor=none;fillColor=none;" vertex="1" parent="1">
          <mxGeometry x="730" y="770" width="80" height="30" as="geometry" />
        </mxCell>
        <mxCell id="PCnRKQrJ0jfSyrjNcoq8-89" value="0..*" style="text;html=1;align=center;verticalAlign=middle;resizable=0;points=[];autosize=1;strokeColor=none;fillColor=none;" vertex="1" parent="1">
          <mxGeometry x="190" y="668" width="40" height="30" as="geometry" />
        </mxCell>
        <mxCell id="PCnRKQrJ0jfSyrjNcoq8-92" value="Riparazone terminata" style="swimlane;fontStyle=1;align=center;verticalAlign=top;childLayout=stackLayout;horizontal=1;startSize=26;horizontalStack=0;resizeParent=1;resizeParentMax=0;resizeLast=0;collapsible=1;marginBottom=0;whiteSpace=wrap;html=1;" vertex="1" parent="1">
          <mxGeometry x="-390" y="318" width="190" height="88" as="geometry" />
        </mxCell>
        <mxCell id="PCnRKQrJ0jfSyrjNcoq8-93" value="istanteRiconsegna:DataOra" style="text;strokeColor=none;fillColor=none;align=left;verticalAlign=top;spacingLeft=4;spacingRight=4;overflow=hidden;rotatable=0;points=[[0,0.5],[1,0.5]];portConstraint=eastwest;whiteSpace=wrap;html=1;" vertex="1" parent="PCnRKQrJ0jfSyrjNcoq8-92">
          <mxGeometry y="26" width="190" height="54" as="geometry" />
        </mxCell>
        <mxCell id="PCnRKQrJ0jfSyrjNcoq8-94" value="" style="line;strokeWidth=1;fillColor=none;align=left;verticalAlign=middle;spacingTop=-1;spacingLeft=3;spacingRight=3;rotatable=0;labelPosition=right;points=[];portConstraint=eastwest;strokeColor=inherit;" vertex="1" parent="PCnRKQrJ0jfSyrjNcoq8-92">
          <mxGeometry y="80" width="190" height="8" as="geometry" />
        </mxCell>
        <mxCell id="PCnRKQrJ0jfSyrjNcoq8-97" style="edgeStyle=orthogonalEdgeStyle;rounded=0;orthogonalLoop=1;jettySize=auto;html=1;exitX=1;exitY=0.5;exitDx=0;exitDy=0;entryX=0.006;entryY=0.423;entryDx=0;entryDy=0;entryPerimeter=0;endArrow=block;endFill=0;" edge="1" parent="1" source="PCnRKQrJ0jfSyrjNcoq8-93" target="PCnRKQrJ0jfSyrjNcoq8-63">
          <mxGeometry relative="1" as="geometry" />
        </mxCell>
      </root>
    </mxGraphModel>
  </diagram>
</mxfile>
